# xmcd
# 
# Track frame offsets:
#     150
#     20742
#     38463
# 
# Disc length: 736
# 
# Revision: 0
# Processed by: cddbd v1.5.2PL0 Copyright (c) Steve Scherf et al.
# Submitted via: fre:ac v1.0.17
# 
DISCID=1902de03
DTITLE=nano.RIPE - 透明な世界
DYEAR=2014
DGENRE=Anime
TTITLE0=透明な世界
TTITLE1=絶対値
TTITLE2=フォルトファインダー
EXTD=
EXTT0=
EXTT1=
EXTT2=
PLAYORDER=
